# Blender 4.5.5 LTS
# www.blender.org
mtllib cube.mtl
o Cube
v 0.844000 0.744000 -1.000000
v 0.744000 0.844000 -1.000000
v 0.744000 1.000000 -0.844000
v 0.844000 1.000000 -0.744000
v 1.000000 0.844000 -0.744000
v 1.000000 0.744000 -0.844000
v 0.836388 0.782268 -1.000000
v 0.814711 0.814711 -1.000000
v 0.903699 0.744000 -0.988125
v 0.892257 0.811988 -0.975854
v 0.866049 0.866049 -0.972511
v 0.926364 0.926364 -0.926364
v 0.744000 0.903699 -0.988125
v 0.744000 0.954309 -0.954309
v 0.782268 0.836388 -1.000000
v 0.811988 0.892257 -0.975854
v 0.826578 0.942882 -0.942882
v 0.782268 1.000000 -0.836388
v 0.814711 1.000000 -0.814711
v 0.744000 0.988125 -0.903699
v 0.811988 0.975854 -0.892257
v 0.866049 0.972511 -0.866049
v 0.903699 0.988125 -0.744000
v 0.954309 0.954309 -0.744000
v 0.836388 1.000000 -0.782268
v 0.892257 0.975854 -0.811988
v 0.942882 0.942882 -0.826578
v 1.000000 0.836388 -0.782268
v 1.000000 0.814711 -0.814711
v 0.988125 0.903699 -0.744000
v 0.975854 0.892257 -0.811988
v 0.972511 0.866049 -0.866049
v 0.988125 0.744000 -0.903699
v 0.954309 0.744000 -0.954309
v 1.000000 0.782268 -0.836388
v 0.975854 0.811988 -0.892257
v 0.942882 0.826578 -0.942882
v 0.844000 -1.000000 -0.744000
v 0.744000 -1.000000 -0.844000
v 0.744000 -0.844000 -1.000000
v 0.844000 -0.744000 -1.000000
v 1.000000 -0.744000 -0.844000
v 1.000000 -0.844000 -0.744000
v 0.836388 -1.000000 -0.782268
v 0.814711 -1.000000 -0.814711
v 0.903699 -0.988125 -0.744000
v 0.892257 -0.975854 -0.811988
v 0.866049 -0.972511 -0.866049
v 0.926364 -0.926364 -0.926364
v 0.744000 -0.988125 -0.903699
v 0.744000 -0.954309 -0.954309
v 0.782268 -1.000000 -0.836388
v 0.811988 -0.975854 -0.892257
v 0.826578 -0.942882 -0.942882
v 0.782268 -0.836388 -1.000000
v 0.814711 -0.814711 -1.000000
v 0.744000 -0.903699 -0.988125
v 0.811988 -0.892257 -0.975854
v 0.866049 -0.866049 -0.972511
v 0.903699 -0.744000 -0.988125
v 0.954309 -0.744000 -0.954309
v 0.836388 -0.782268 -1.000000
v 0.892257 -0.811988 -0.975854
v 0.942882 -0.826578 -0.942882
v 1.000000 -0.782268 -0.836388
v 1.000000 -0.814711 -0.814711
v 0.988125 -0.744000 -0.903699
v 0.975854 -0.811988 -0.892257
v 0.972511 -0.866049 -0.866049
v 0.988125 -0.903699 -0.744000
v 0.954309 -0.954309 -0.744000
v 1.000000 -0.836388 -0.782268
v 0.975854 -0.892257 -0.811988
v 0.942882 -0.942882 -0.826578
v 1.000000 0.744000 0.844000
v 1.000000 0.844000 0.744000
v 0.844000 1.000000 0.744000
v 0.744000 1.000000 0.844000
v 0.744000 0.844000 1.000000
v 0.844000 0.744000 1.000000
v 1.000000 0.782268 0.836388
v 1.000000 0.814711 0.814711
v 0.988125 0.744000 0.903699
v 0.975854 0.811988 0.892257
v 0.972511 0.866049 0.866049
v 0.926364 0.926364 0.926364
v 0.988125 0.903699 0.744000
v 0.954309 0.954309 0.744000
v 1.000000 0.836388 0.782268
v 0.975854 0.892257 0.811988
v 0.942882 0.942882 0.826578
v 0.836388 1.000000 0.782268
v 0.814711 1.000000 0.814711
v 0.903699 0.988125 0.744000
v 0.892257 0.975854 0.811988
v 0.866049 0.972511 0.866049
v 0.744000 0.988125 0.903699
v 0.744000 0.954309 0.954309
v 0.782268 1.000000 0.836388
v 0.811988 0.975854 0.892257
v 0.826578 0.942882 0.942882
v 0.782268 0.836388 1.000000
v 0.814711 0.814711 1.000000
v 0.744000 0.903699 0.988125
v 0.811988 0.892257 0.975854
v 0.866049 0.866049 0.972511
v 0.903699 0.744000 0.988125
v 0.954309 0.744000 0.954309
v 0.836388 0.782268 1.000000
v 0.892257 0.811988 0.975854
v 0.942882 0.826578 0.942882
v 1.000000 -0.844000 0.744000
v 1.000000 -0.744000 0.844000
v 0.844000 -0.744000 1.000000
v 0.744000 -0.844000 1.000000
v 0.744000 -1.000000 0.844000
v 0.844000 -1.000000 0.744000
v 1.000000 -0.836388 0.782268
v 1.000000 -0.814711 0.814711
v 0.988125 -0.903699 0.744000
v 0.975854 -0.892257 0.811988
v 0.972511 -0.866049 0.866049
v 0.926364 -0.926364 0.926364
v 0.988125 -0.744000 0.903699
v 0.954309 -0.744000 0.954309
v 1.000000 -0.782268 0.836388
v 0.975854 -0.811988 0.892257
v 0.942882 -0.826578 0.942882
v 0.836388 -0.782268 1.000000
v 0.814711 -0.814711 1.000000
v 0.903699 -0.744000 0.988125
v 0.892257 -0.811988 0.975854
v 0.866049 -0.866049 0.972511
v 0.744000 -0.903699 0.988125
v 0.744000 -0.954309 0.954309
v 0.782268 -0.836388 1.000000
v 0.811988 -0.892257 0.975854
v 0.826578 -0.942882 0.942882
v 0.782268 -1.000000 0.836388
v 0.814711 -1.000000 0.814711
v 0.744000 -0.988125 0.903699
v 0.811988 -0.975854 0.892257
v 0.866049 -0.972511 0.866049
v 0.903699 -0.988125 0.744000
v 0.954309 -0.954309 0.744000
v 0.836388 -1.000000 0.782268
v 0.892257 -0.975854 0.811988
v 0.942882 -0.942882 0.826578
v -0.744000 0.844000 -1.000000
v -0.844000 0.744000 -1.000000
v -1.000000 0.744000 -0.844000
v -1.000000 0.844000 -0.744000
v -0.844000 1.000000 -0.744000
v -0.744000 1.000000 -0.844000
v -0.782268 0.836388 -1.000000
v -0.814711 0.814711 -1.000000
v -0.744000 0.903699 -0.988125
v -0.811988 0.892257 -0.975854
v -0.866049 0.866049 -0.972511
v -0.926364 0.926364 -0.926364
v -0.903699 0.744000 -0.988125
v -0.954309 0.744000 -0.954309
v -0.836388 0.782268 -1.000000
v -0.892257 0.811988 -0.975854
v -0.942882 0.826578 -0.942882
v -1.000000 0.782268 -0.836388
v -1.000000 0.814711 -0.814711
v -0.988125 0.744000 -0.903699
v -0.975854 0.811988 -0.892257
v -0.972511 0.866049 -0.866049
v -0.988125 0.903699 -0.744000
v -0.954309 0.954309 -0.744000
v -1.000000 0.836388 -0.782268
v -0.975854 0.892257 -0.811988
v -0.942882 0.942882 -0.826578
v -0.836388 1.000000 -0.782268
v -0.814711 1.000000 -0.814711
v -0.903699 0.988125 -0.744000
v -0.892257 0.975854 -0.811988
v -0.866049 0.972511 -0.866049
v -0.744000 0.988125 -0.903699
v -0.744000 0.954309 -0.954309
v -0.782268 1.000000 -0.836388
v -0.811988 0.975854 -0.892257
v -0.826578 0.942882 -0.942882
v -1.000000 -0.844000 -0.744000
v -1.000000 -0.744000 -0.844000
v -0.844000 -0.744000 -1.000000
v -0.744000 -0.844000 -1.000000
v -0.744000 -1.000000 -0.844000
v -0.844000 -1.000000 -0.744000
v -1.000000 -0.836388 -0.782268
v -1.000000 -0.814711 -0.814711
v -0.988125 -0.903699 -0.744000
v -0.975854 -0.892257 -0.811988
v -0.972511 -0.866049 -0.866049
v -0.926364 -0.926364 -0.926364
v -0.988125 -0.744000 -0.903699
v -0.954309 -0.744000 -0.954309
v -1.000000 -0.782268 -0.836388
v -0.975854 -0.811988 -0.892257
v -0.942882 -0.826578 -0.942882
v -0.836388 -0.782268 -1.000000
v -0.814711 -0.814711 -1.000000
v -0.903699 -0.744000 -0.988125
v -0.892257 -0.811988 -0.975854
v -0.866049 -0.866049 -0.972511
v -0.744000 -0.903699 -0.988125
v -0.744000 -0.954309 -0.954309
v -0.782268 -0.836388 -1.000000
v -0.811988 -0.892257 -0.975854
v -0.826578 -0.942882 -0.942882
v -0.782268 -1.000000 -0.836388
v -0.814711 -1.000000 -0.814711
v -0.744000 -0.988125 -0.903699
v -0.811988 -0.975854 -0.892257
v -0.866049 -0.972511 -0.866049
v -0.903699 -0.988125 -0.744000
v -0.954309 -0.954309 -0.744000
v -0.836388 -1.000000 -0.782268
v -0.892257 -0.975854 -0.811988
v -0.942882 -0.942882 -0.826578
v -1.000000 0.844000 0.744000
v -1.000000 0.744000 0.844000
v -0.844000 0.744000 1.000000
v -0.744000 0.844000 1.000000
v -0.744000 1.000000 0.844000
v -0.844000 1.000000 0.744000
v -1.000000 0.836388 0.782268
v -1.000000 0.814711 0.814711
v -0.988125 0.903699 0.744000
v -0.975854 0.892257 0.811988
v -0.972511 0.866049 0.866049
v -0.926364 0.926364 0.926364
v -0.988125 0.744000 0.903699
v -0.954309 0.744000 0.954309
v -1.000000 0.782268 0.836388
v -0.975854 0.811988 0.892257
v -0.942882 0.826578 0.942882
v -0.836388 0.782268 1.000000
v -0.814711 0.814711 1.000000
v -0.903699 0.744000 0.988125
v -0.892257 0.811988 0.975854
v -0.866049 0.866049 0.972511
v -0.744000 0.903699 0.988125
v -0.744000 0.954309 0.954309
v -0.782268 0.836388 1.000000
v -0.811988 0.892257 0.975854
v -0.826578 0.942882 0.942882
v -0.782268 1.000000 0.836388
v -0.814711 1.000000 0.814711
v -0.744000 0.988125 0.903699
v -0.811988 0.975854 0.892257
v -0.866049 0.972511 0.866049
v -0.903699 0.988125 0.744000
v -0.954309 0.954309 0.744000
v -0.836388 1.000000 0.782268
v -0.892257 0.975854 0.811988
v -0.942882 0.942882 0.826578
v -0.844000 -1.000000 0.744000
v -0.744000 -1.000000 0.844000
v -0.744000 -0.844000 1.000000
v -0.844000 -0.744000 1.000000
v -1.000000 -0.744000 0.844000
v -1.000000 -0.844000 0.744000
v -0.836388 -1.000000 0.782268
v -0.814711 -1.000000 0.814711
v -0.903699 -0.988125 0.744000
v -0.892257 -0.975854 0.811988
v -0.866049 -0.972511 0.866049
v -0.926364 -0.926364 0.926364
v -0.744000 -0.988125 0.903699
v -0.744000 -0.954309 0.954309
v -0.782268 -1.000000 0.836388
v -0.811988 -0.975854 0.892257
v -0.826578 -0.942882 0.942882
v -0.782268 -0.836388 1.000000
v -0.814711 -0.814711 1.000000
v -0.744000 -0.903699 0.988125
v -0.811988 -0.892257 0.975854
v -0.866049 -0.866049 0.972511
v -0.903699 -0.744000 0.988125
v -0.954309 -0.744000 0.954309
v -0.836388 -0.782268 1.000000
v -0.892257 -0.811988 0.975854
v -0.942882 -0.826578 0.942882
v -1.000000 -0.782268 0.836388
v -1.000000 -0.814711 0.814711
v -0.988125 -0.744000 0.903699
v -0.975854 -0.811988 0.892257
v -0.972511 -0.866049 0.866049
v -0.988125 -0.903699 0.744000
v -0.954309 -0.954309 0.744000
v -1.000000 -0.836388 0.782268
v -0.975854 -0.892257 0.811988
v -0.942882 -0.942882 0.826578
vn 0.2571 0.1562 -0.9537
vn 0.2977 0.2008 -0.9333
vn 0.5173 0.2092 -0.8298
vn 0.4531 0.2368 -0.8595
vn 0.1562 0.2571 -0.9537
vn 0.2092 0.5173 -0.8298
vn 0.2008 0.2977 -0.9333
vn 0.2368 0.4531 -0.8595
vn 0.1562 0.9537 -0.2571
vn 0.2008 0.9333 -0.2977
vn 0.2092 0.8298 -0.5173
vn 0.2368 0.8595 -0.4531
vn 0.2571 0.9537 -0.1562
vn 0.5173 0.8298 -0.2092
vn 0.2977 0.9333 -0.2008
vn 0.4531 0.8595 -0.2368
vn 0.9537 0.2571 -0.1562
vn 0.9333 0.2977 -0.2008
vn 0.8298 0.5173 -0.2092
vn 0.8595 0.4531 -0.2368
vn 0.9537 0.1562 -0.2571
vn 0.8298 0.2092 -0.5173
vn 0.9333 0.2008 -0.2977
vn 0.8595 0.2368 -0.4531
vn 0.2571 -0.9537 -0.1562
vn 0.2977 -0.9333 -0.2008
vn 0.5173 -0.8298 -0.2092
vn 0.4531 -0.8595 -0.2368
vn 0.1562 -0.9537 -0.2571
vn 0.2092 -0.8298 -0.5173
vn 0.2008 -0.9333 -0.2977
vn 0.2368 -0.8595 -0.4531
vn 0.1562 -0.2571 -0.9537
vn 0.2008 -0.2977 -0.9333
vn 0.2092 -0.5173 -0.8298
vn 0.2368 -0.4531 -0.8595
vn 0.2571 -0.1562 -0.9537
vn 0.5173 -0.2092 -0.8298
vn 0.2977 -0.2008 -0.9333
vn 0.4531 -0.2368 -0.8595
vn 0.9537 -0.1562 -0.2571
vn 0.9333 -0.2008 -0.2977
vn 0.8298 -0.2092 -0.5173
vn 0.8595 -0.2368 -0.4531
vn 0.9537 -0.2571 -0.1562
vn 0.8298 -0.5173 -0.2092
vn 0.9333 -0.2977 -0.2008
vn 0.8595 -0.4531 -0.2368
vn 0.9537 0.1562 0.2571
vn 0.9333 0.2008 0.2977
vn 0.8298 0.2092 0.5173
vn 0.8595 0.2368 0.4531
vn 0.9537 0.2571 0.1562
vn 0.8298 0.5173 0.2092
vn 0.9333 0.2977 0.2008
vn 0.8595 0.4531 0.2368
vn 0.2571 0.9537 0.1562
vn 0.2977 0.9333 0.2008
vn 0.5173 0.8298 0.2092
vn 0.4531 0.8595 0.2368
vn 0.1562 0.9537 0.2571
vn 0.2092 0.8298 0.5173
vn 0.2008 0.9333 0.2977
vn 0.2368 0.8595 0.4531
vn 0.1562 0.2571 0.9537
vn 0.2008 0.2977 0.9333
vn 0.2092 0.5173 0.8298
vn 0.2368 0.4531 0.8595
vn 0.2571 0.1562 0.9537
vn 0.5173 0.2092 0.8298
vn 0.2977 0.2008 0.9333
vn 0.4531 0.2368 0.8595
vn 0.9537 -0.2571 0.1562
vn 0.9333 -0.2977 0.2008
vn 0.8298 -0.5173 0.2092
vn 0.8595 -0.4531 0.2368
vn 0.9537 -0.1562 0.2571
vn 0.8298 -0.2092 0.5173
vn 0.9333 -0.2008 0.2977
vn 0.8595 -0.2368 0.4531
vn 0.2571 -0.1562 0.9537
vn 0.2977 -0.2008 0.9333
vn 0.5173 -0.2092 0.8298
vn 0.4531 -0.2368 0.8595
vn 0.1562 -0.2571 0.9537
vn 0.2092 -0.5173 0.8298
vn 0.2008 -0.2977 0.9333
vn 0.2368 -0.4531 0.8595
vn 0.1562 -0.9537 0.2571
vn 0.2008 -0.9333 0.2977
vn 0.2092 -0.8298 0.5173
vn 0.2368 -0.8595 0.4531
vn 0.2571 -0.9537 0.1562
vn 0.5173 -0.8298 0.2092
vn 0.2977 -0.9333 0.2008
vn 0.4531 -0.8595 0.2368
vn -0.1562 0.2571 -0.9537
vn -0.2008 0.2977 -0.9333
vn -0.2092 0.5173 -0.8298
vn -0.2368 0.4531 -0.8595
vn -0.2571 0.1562 -0.9537
vn -0.5173 0.2092 -0.8298
vn -0.2977 0.2008 -0.9333
vn -0.4531 0.2368 -0.8595
vn -0.9537 0.1562 -0.2571
vn -0.9333 0.2008 -0.2977
vn -0.8298 0.2092 -0.5173
vn -0.8595 0.2368 -0.4531
vn -0.9537 0.2571 -0.1562
vn -0.8298 0.5173 -0.2092
vn -0.9333 0.2977 -0.2008
vn -0.8595 0.4531 -0.2368
vn -0.2571 0.9537 -0.1562
vn -0.2977 0.9333 -0.2008
vn -0.5173 0.8298 -0.2092
vn -0.4531 0.8595 -0.2368
vn -0.1562 0.9537 -0.2571
vn -0.2092 0.8298 -0.5173
vn -0.2008 0.9333 -0.2977
vn -0.2368 0.8595 -0.4531
vn -0.9537 -0.2571 -0.1562
vn -0.9333 -0.2977 -0.2008
vn -0.8298 -0.5173 -0.2092
vn -0.8595 -0.4531 -0.2368
vn -0.9537 -0.1562 -0.2571
vn -0.8298 -0.2092 -0.5173
vn -0.9333 -0.2008 -0.2977
vn -0.8595 -0.2368 -0.4531
vn -0.2571 -0.1562 -0.9537
vn -0.2977 -0.2008 -0.9333
vn -0.5173 -0.2092 -0.8298
vn -0.4531 -0.2368 -0.8595
vn -0.1562 -0.2571 -0.9537
vn -0.2092 -0.5173 -0.8298
vn -0.2008 -0.2977 -0.9333
vn -0.2368 -0.4531 -0.8595
vn -0.1562 -0.9537 -0.2571
vn -0.2008 -0.9333 -0.2977
vn -0.2092 -0.8298 -0.5173
vn -0.2368 -0.8595 -0.4531
vn -0.2571 -0.9537 -0.1562
vn -0.5173 -0.8298 -0.2092
vn -0.2977 -0.9333 -0.2008
vn -0.4531 -0.8595 -0.2368
vn -0.9537 0.2571 0.1562
vn -0.9333 0.2977 0.2008
vn -0.8298 0.5173 0.2092
vn -0.8595 0.4531 0.2368
vn -0.9537 0.1562 0.2571
vn -0.8298 0.2092 0.5173
vn -0.9333 0.2008 0.2977
vn -0.8595 0.2368 0.4531
vn -0.2571 0.1562 0.9537
vn -0.2977 0.2008 0.9333
vn -0.5173 0.2092 0.8298
vn -0.4531 0.2368 0.8595
vn -0.1562 0.2571 0.9537
vn -0.2092 0.5173 0.8298
vn -0.2008 0.2977 0.9333
vn -0.2368 0.4531 0.8595
vn -0.1562 0.9537 0.2571
vn -0.2008 0.9333 0.2977
vn -0.2092 0.8298 0.5173
vn -0.2368 0.8595 0.4531
vn -0.2571 0.9537 0.1562
vn -0.5173 0.8298 0.2092
vn -0.2977 0.9333 0.2008
vn -0.4531 0.8595 0.2368
vn -0.2571 -0.9537 0.1562
vn -0.2977 -0.9333 0.2008
vn -0.5173 -0.8298 0.2092
vn -0.4531 -0.8595 0.2368
vn -0.1562 -0.9537 0.2571
vn -0.2092 -0.8298 0.5173
vn -0.2008 -0.9333 0.2977
vn -0.2368 -0.8595 0.4531
vn -0.1562 -0.2571 0.9537
vn -0.2008 -0.2977 0.9333
vn -0.2092 -0.5173 0.8298
vn -0.2368 -0.4531 0.8595
vn -0.2571 -0.1562 0.9537
vn -0.5173 -0.2092 0.8298
vn -0.2977 -0.2008 0.9333
vn -0.4531 -0.2368 0.8595
vn -0.9537 -0.1562 0.2571
vn -0.9333 -0.2008 0.2977
vn -0.8298 -0.2092 0.5173
vn -0.8595 -0.2368 0.4531
vn -0.9537 -0.2571 0.1562
vn -0.8298 -0.5173 0.2092
vn -0.9333 -0.2977 0.2008
vn -0.8595 -0.4531 0.2368
vn -0.1951 -0.9808 -0.0000
vn -0.5556 -0.8315 -0.0000
vn -0.8315 -0.5556 -0.0000
vn -0.9808 -0.1951 -0.0000
vn -0.0000 -0.9808 -0.1951
vn -0.0000 -0.8315 -0.5556
vn -0.0000 -0.5556 -0.8315
vn -0.0000 -0.1951 -0.9808
vn 0.9808 -0.0000 -0.1951
vn 0.8315 -0.0000 -0.5556
vn 0.5556 -0.0000 -0.8315
vn 0.1951 -0.0000 -0.9808
vn -0.1951 -0.0000 0.9808
vn -0.5556 -0.0000 0.8315
vn -0.8315 -0.0000 0.5556
vn -0.9808 -0.0000 0.1951
vn 0.1951 -0.0000 0.9808
vn 0.5556 -0.0000 0.8315
vn 0.8315 -0.0000 0.5556
vn 0.9808 -0.0000 0.1951
vn -0.1951 -0.0000 -0.9808
vn -0.5556 -0.0000 -0.8315
vn -0.8315 -0.0000 -0.5556
vn -0.9808 -0.0000 -0.1951
vn -0.0000 0.9808 0.1951
vn -0.0000 0.8315 0.5556
vn -0.0000 0.5556 0.8315
vn -0.0000 0.1951 0.9808
vn 0.1951 0.9808 -0.0000
vn 0.5556 0.8315 -0.0000
vn 0.8315 0.5556 -0.0000
vn 0.9808 0.1951 -0.0000
vn -0.0000 -0.9808 0.1951
vn -0.0000 -0.8315 0.5556
vn -0.0000 -0.5556 0.8315
vn -0.0000 -0.1951 0.9808
vn -0.1951 0.9808 -0.0000
vn -0.5556 0.8315 -0.0000
vn -0.8315 0.5556 -0.0000
vn -0.9808 0.1951 -0.0000
vn -0.0000 0.9808 -0.1951
vn -0.0000 0.8315 -0.5556
vn -0.0000 0.5556 -0.8315
vn -0.0000 0.1951 -0.9808
vn 0.1951 -0.9808 -0.0000
vn 0.5556 -0.8315 -0.0000
vn 0.8315 -0.5556 -0.0000
vn 0.9808 -0.1951 -0.0000
vn -0.0000 -0.0000 -1.0000
vn 1.0000 -0.0000 -0.0000
vn -0.0000 1.0000 -0.0000
vn -0.0000 -1.0000 -0.0000
vn -0.0000 -0.0000 1.0000
vn -1.0000 -0.0000 -0.0000
vt 0.593000 0.480522
vt 0.597784 0.479598
vt 0.601498 0.503018
vt 0.593000 0.488538
vt 0.601839 0.476868
vt 0.608256 0.493346
vt 0.603322 0.500000
vt 0.593000 0.500000
vt 0.621932 0.500000
vt 0.605500 0.468000
vt 0.612962 0.468000
vt 0.611532 0.476498
vt 0.604548 0.472783
vt 0.640212 0.483212
vt 0.625000 0.478322
vt 0.656963 0.519441
vt 0.652151 0.520336
vt 0.621982 0.476498
vt 0.655574 0.510162
vt 0.648133 0.523104
vt 0.631654 0.500000
vt 0.644500 0.532000
vt 0.637038 0.532000
vt 0.638468 0.523502
vt 0.645451 0.527216
vt 0.625000 0.532000
vt 0.625000 0.521678
vt 0.605522 0.532000
vt 0.604598 0.527216
vt 0.628018 0.523502
vt 0.613538 0.532000
vt 0.601868 0.523161
vt 0.618346 0.516744
vt 0.593000 0.519500
vt 0.593000 0.512038
vt 0.601498 0.513468
vt 0.597783 0.520451
vt 0.355522 0.532000
vt 0.354598 0.527216
vt 0.378018 0.523502
vt 0.363538 0.532000
vt 0.351868 0.523161
vt 0.368346 0.516744
vt 0.375000 0.521678
vt 0.375000 0.532000
vt 0.375000 0.503068
vt 0.343000 0.519500
vt 0.343000 0.512038
vt 0.351498 0.513468
vt 0.347784 0.520451
vt 0.358212 0.484788
vt 0.353322 0.500000
vt 0.394441 0.468037
vt 0.395336 0.472849
vt 0.351498 0.503018
vt 0.385162 0.469426
vt 0.398104 0.476868
vt 0.375000 0.493346
vt 0.407000 0.480500
vt 0.407000 0.487962
vt 0.398502 0.486532
vt 0.402216 0.479548
vt 0.407000 0.500000
vt 0.396678 0.500000
vt 0.407000 0.519478
vt 0.402216 0.520402
vt 0.398502 0.496982
vt 0.407000 0.511462
vt 0.398161 0.523133
vt 0.391744 0.506654
vt 0.394500 0.532000
vt 0.387038 0.532000
vt 0.388468 0.523502
vt 0.395451 0.527216
vt 0.593000 0.730522
vt 0.597784 0.729598
vt 0.601498 0.753018
vt 0.593000 0.738538
vt 0.601839 0.726868
vt 0.608256 0.743346
vt 0.603322 0.750000
vt 0.593000 0.750000
vt 0.625000 0.746932
vt 0.605500 0.718000
vt 0.612962 0.718000
vt 0.611532 0.726498
vt 0.604549 0.722784
vt 0.625000 0.718000
vt 0.625000 0.728322
vt 0.644478 0.718000
vt 0.645402 0.722784
vt 0.621982 0.726499
vt 0.636462 0.718000
vt 0.648133 0.726839
vt 0.631654 0.733256
vt 0.657000 0.730500
vt 0.657000 0.737962
vt 0.648501 0.736532
vt 0.652216 0.729548
vt 0.641788 0.765212
vt 0.646678 0.750000
vt 0.605559 0.781963
vt 0.604664 0.777151
vt 0.648502 0.746982
vt 0.614838 0.780574
vt 0.601896 0.773133
vt 0.625000 0.756654
vt 0.593000 0.769500
vt 0.593000 0.762038
vt 0.601498 0.763468
vt 0.597784 0.770451
vt 0.394478 0.718000
vt 0.395402 0.722783
vt 0.371982 0.726498
vt 0.386462 0.718000
vt 0.398133 0.726839
vt 0.381654 0.733256
vt 0.375000 0.728322
vt 0.375000 0.718000
vt 0.378068 0.750000
vt 0.407000 0.730500
vt 0.407000 0.737962
vt 0.398501 0.736532
vt 0.402216 0.729548
vt 0.407000 0.750000
vt 0.396678 0.750000
vt 0.407000 0.769477
vt 0.402216 0.770402
vt 0.398501 0.746982
vt 0.407000 0.761462
vt 0.398161 0.773133
vt 0.391744 0.756654
vt 0.394500 0.782000
vt 0.387038 0.782000
vt 0.388468 0.773502
vt 0.395451 0.777216
vt 0.359788 0.766788
vt 0.375000 0.771678
vt 0.343037 0.730559
vt 0.347849 0.729664
vt 0.378018 0.773502
vt 0.344426 0.739838
vt 0.351867 0.726896
vt 0.368346 0.750000
vt 0.355500 0.718000
vt 0.362962 0.718000
vt 0.361532 0.726498
vt 0.354548 0.722784
vt 0.843000 0.500000
vt 0.847784 0.500000
vt 0.851498 0.503018
vt 0.843000 0.501484
vt 0.851839 0.500000
vt 0.858256 0.503436
vt 0.853322 0.500000
vt 0.865795 0.500000
vt 0.593000 0.269500
vt 0.593000 0.262038
vt 0.601498 0.263468
vt 0.597784 0.270452
vt 0.593000 0.250000
vt 0.603322 0.250000
vt 0.608256 0.266744
vt 0.601839 0.273161
vt 0.620398 0.245398
vt 0.593000 0.230522
vt 0.597784 0.229598
vt 0.601498 0.253018
vt 0.593000 0.238538
vt 0.601839 0.226868
vt 0.608256 0.243346
vt 0.605500 0.218000
vt 0.612962 0.218000
vt 0.611532 0.226498
vt 0.604549 0.222784
vt 0.625000 0.218000
vt 0.625000 0.228322
vt 0.625000 0.222784
vt 0.621982 0.226498
vt 0.623516 0.218000
vt 0.625000 0.226839
vt 0.621564 0.233256
vt 0.843000 0.519500
vt 0.843000 0.512038
vt 0.851498 0.513468
vt 0.847784 0.520451
vt 0.858256 0.516744
vt 0.851839 0.523161
vt 0.125000 0.532000
vt 0.125000 0.527216
vt 0.128018 0.523501
vt 0.126484 0.532000
vt 0.125000 0.523161
vt 0.128436 0.516744
vt 0.125000 0.521678
vt 0.125000 0.509205
vt 0.407000 0.230500
vt 0.407000 0.237962
vt 0.398501 0.236532
vt 0.402216 0.229548
vt 0.407000 0.250000
vt 0.396678 0.250000
vt 0.391744 0.233256
vt 0.398161 0.226839
vt 0.379602 0.254602
vt 0.407000 0.269478
vt 0.402216 0.270402
vt 0.398501 0.246982
vt 0.407000 0.261462
vt 0.398161 0.273133
vt 0.391744 0.256654
vt 0.394500 0.282000
vt 0.387038 0.282000
vt 0.388468 0.273502
vt 0.395451 0.277216
vt 0.375000 0.282000
vt 0.375000 0.271678
vt 0.375000 0.282000
vt 0.375000 0.277216
vt 0.378018 0.273502
vt 0.376484 0.282000
vt 0.375000 0.273161
vt 0.378436 0.266744
vt 0.144500 0.532000
vt 0.137038 0.532000
vt 0.138468 0.523502
vt 0.145452 0.527216
vt 0.141744 0.516744
vt 0.148161 0.523161
vt 0.875000 0.718000
vt 0.875000 0.722784
vt 0.871982 0.726498
vt 0.873516 0.718000
vt 0.875000 0.726839
vt 0.871564 0.733256
vt 0.875000 0.728322
vt 0.875000 0.718000
vt 0.875000 0.740795
vt 0.593000 0.019500
vt 0.593000 0.012038
vt 0.601498 0.013468
vt 0.597783 0.020452
vt 0.593000 0.000000
vt 0.603322 0.000000
vt 0.608256 0.016744
vt 0.601839 0.023161
vt 0.615796 0.000000
vt 0.593000 0.000000
vt 0.597784 0.000000
vt 0.601498 0.003018
vt 0.593000 0.001484
vt 0.601839 0.000000
vt 0.608256 0.003436
vt 0.605500 0.968000
vt 0.612962 0.968000
vt 0.611532 0.976499
vt 0.604548 0.972783
vt 0.625000 0.968000
vt 0.625000 0.978322
vt 0.608256 0.983256
vt 0.601839 0.976839
vt 0.625000 0.990795
vt 0.625000 0.968000
vt 0.625000 0.972784
vt 0.621982 0.976499
vt 0.623516 0.968000
vt 0.625000 0.976839
vt 0.621564 0.983256
vt 0.855500 0.718000
vt 0.862962 0.718000
vt 0.861532 0.726498
vt 0.854548 0.722784
vt 0.858256 0.733256
vt 0.851839 0.726839
vt 0.375000 0.032000
vt 0.375000 0.027216
vt 0.378018 0.023502
vt 0.376484 0.032000
vt 0.375000 0.023161
vt 0.378436 0.016744
vt 0.375000 0.021678
vt 0.375000 0.009204
vt 0.157000 0.730500
vt 0.157000 0.737962
vt 0.148502 0.736532
vt 0.152216 0.729548
vt 0.157000 0.750000
vt 0.146678 0.750000
vt 0.141744 0.733256
vt 0.148161 0.726839
vt 0.134205 0.750000
vt 0.157000 0.750000
vt 0.152216 0.750000
vt 0.148502 0.746982
vt 0.157000 0.748516
vt 0.148161 0.750000
vt 0.141744 0.746564
vt 0.407000 0.980500
vt 0.407000 0.987962
vt 0.398501 0.986532
vt 0.402216 0.979548
vt 0.407000 1.000000
vt 0.396678 1.000000
vt 0.391744 0.983256
vt 0.398161 0.976839
vt 0.384205 1.000000
vt 0.402216 1.000000
vt 0.398502 0.996982
vt 0.407000 0.998516
vt 0.398161 1.000000
vt 0.391744 0.996564
vt 0.394500 0.032000
vt 0.387038 0.032000
vt 0.388468 0.023502
vt 0.395451 0.027216
vt 0.391744 0.016744
vt 0.398161 0.023161
vt 0.144500 0.718000
vt 0.137038 0.718000
vt 0.125000 0.718000
vt 0.375000 0.218000
vt 0.387038 0.218000
vt 0.394500 0.218000
vt 0.157000 0.519500
vt 0.157000 0.512038
vt 0.157000 0.500000
vt 0.593000 0.980500
vt 0.593000 0.987962
vt 0.593000 1.000000
vt 0.407000 0.000000
vt 0.407000 0.012038
vt 0.407000 0.019500
vt 0.843000 0.730500
vt 0.843000 0.737962
vt 0.843000 0.750000
vt 0.375000 0.968000
vt 0.387038 0.968000
vt 0.394500 0.968000
vt 0.855500 0.532000
vt 0.862962 0.532000
vt 0.875000 0.532000
vt 0.625000 0.032000
vt 0.612962 0.032000
vt 0.605500 0.032000
vt 0.625000 0.282000
vt 0.612962 0.282000
vt 0.605500 0.282000
vt 0.604549 0.277216
vt 0.854548 0.527216
vt 0.847784 0.729549
vt 0.152216 0.520452
vt 0.145452 0.722783
vt 0.597784 0.979549
vt 0.395451 0.972783
vt 0.402216 0.020452
vt 0.604549 0.027216
vt 0.395451 0.222784
s 0
usemtl Material
f 1/1/1 7/2/1 10/3/1 9/4/1
f 7/2/2 8/5/2 11/6/2 10/3/2
f 9/4/3 10/3/3 37/7/3 34/8/3
f 10/3/4 11/6/4 12/9/4 37/7/4
f 2/10/5 13/11/5 16/12/5 15/13/5
f 13/11/6 14/14/6 17/15/6 16/12/6
f 15/13/7 16/12/7 11/6/7 8/5/7
f 16/12/8 17/15/8 12/9/8 11/6/8
f 3/16/9 18/17/9 21/18/9 20/19/9
f 18/17/10 19/20/10 22/21/10 21/18/10
f 20/19/11 21/18/11 17/15/11 14/14/11
f 21/18/12 22/21/12 12/9/12 17/15/12
f 4/22/13 23/23/13 26/24/13 25/25/13
f 23/23/14 24/26/14 27/27/14 26/24/14
f 25/25/15 26/24/15 22/21/15 19/20/15
f 26/24/16 27/27/16 12/9/16 22/21/16
f 5/28/17 28/29/17 31/30/17 30/31/17
f 28/29/18 29/32/18 32/33/18 31/30/18
f 30/31/19 31/30/19 27/27/19 24/26/19
f 31/30/20 32/33/20 12/9/20 27/27/20
f 6/34/21 33/35/21 36/36/21 35/37/21
f 33/35/22 34/8/22 37/7/22 36/36/22
f 35/37/23 36/36/23 32/33/23 29/32/23
f 36/36/24 37/7/24 12/9/24 32/33/24
f 38/38/25 44/39/25 47/40/25 46/41/25
f 44/39/26 45/42/26 48/43/26 47/40/26
f 46/41/27 47/40/27 74/44/27 71/45/27
f 47/40/28 48/43/28 49/46/28 74/44/28
f 39/47/29 50/48/29 53/49/29 52/50/29
f 50/48/30 51/51/30 54/52/30 53/49/30
f 52/50/31 53/49/31 48/43/31 45/42/31
f 53/49/32 54/52/32 49/46/32 48/43/32
f 40/53/33 55/54/33 58/55/33 57/56/33
f 55/54/34 56/57/34 59/58/34 58/55/34
f 57/56/35 58/55/35 54/52/35 51/51/35
f 58/55/36 59/58/36 49/46/36 54/52/36
f 41/59/37 60/60/37 63/61/37 62/62/37
f 60/60/38 61/63/38 64/64/38 63/61/38
f 62/62/39 63/61/39 59/58/39 56/57/39
f 63/61/40 64/64/40 49/46/40 59/58/40
f 42/65/41 65/66/41 68/67/41 67/68/41
f 65/66/42 66/69/42 69/70/42 68/67/42
f 67/68/43 68/67/43 64/64/43 61/63/43
f 68/67/44 69/70/44 49/46/44 64/64/44
f 43/71/45 70/72/45 73/73/45 72/74/45
f 70/72/46 71/45/46 74/44/46 73/73/46
f 72/74/47 73/73/47 69/70/47 66/69/47
f 73/73/48 74/44/48 49/46/48 69/70/48
f 75/75/49 81/76/49 84/77/49 83/78/49
f 81/76/50 82/79/50 85/80/50 84/77/50
f 83/78/51 84/77/51 111/81/51 108/82/51
f 84/77/52 85/80/52 86/83/52 111/81/52
f 76/84/53 87/85/53 90/86/53 89/87/53
f 87/85/54 88/88/54 91/89/54 90/86/54
f 89/87/55 90/86/55 85/80/55 82/79/55
f 90/86/56 91/89/56 86/83/56 85/80/56
f 77/90/57 92/91/57 95/92/57 94/93/57
f 92/91/58 93/94/58 96/95/58 95/92/58
f 94/93/59 95/92/59 91/89/59 88/88/59
f 95/92/60 96/95/60 86/83/60 91/89/60
f 78/96/61 97/97/61 100/98/61 99/99/61
f 97/97/62 98/100/62 101/101/62 100/98/62
f 99/99/63 100/98/63 96/95/63 93/94/63
f 100/98/64 101/101/64 86/83/64 96/95/64
f 79/102/65 102/103/65 105/104/65 104/105/65
f 102/103/66 103/106/66 106/107/66 105/104/66
f 104/105/67 105/104/67 101/101/67 98/100/67
f 105/104/68 106/107/68 86/83/68 101/101/68
f 80/108/69 107/109/69 110/110/69 109/111/69
f 107/109/70 108/82/70 111/81/70 110/110/70
f 109/111/71 110/110/71 106/107/71 103/106/71
f 110/110/72 111/81/72 86/83/72 106/107/72
f 112/112/73 118/113/73 121/114/73 120/115/73
f 118/113/74 119/116/74 122/117/74 121/114/74
f 120/115/75 121/114/75 148/118/75 145/119/75
f 121/114/76 122/117/76 123/120/76 148/118/76
f 113/121/77 124/122/77 127/123/77 126/124/77
f 124/122/78 125/125/78 128/126/78 127/123/78
f 126/124/79 127/123/79 122/117/79 119/116/79
f 127/123/80 128/126/80 123/120/80 122/117/80
f 114/127/81 129/128/81 132/129/81 131/130/81
f 129/128/82 130/131/82 133/132/82 132/129/82
f 131/130/83 132/129/83 128/126/83 125/125/83
f 132/129/84 133/132/84 123/120/84 128/126/84
f 115/133/85 134/134/85 137/135/85 136/136/85
f 134/134/86 135/137/86 138/138/86 137/135/86
f 136/136/87 137/135/87 133/132/87 130/131/87
f 137/135/88 138/138/88 123/120/88 133/132/88
f 116/139/89 139/140/89 142/141/89 141/142/89
f 139/140/90 140/143/90 143/144/90 142/141/90
f 141/142/91 142/141/91 138/138/91 135/137/91
f 142/141/92 143/144/92 123/120/92 138/138/92
f 117/145/93 144/146/93 147/147/93 146/148/93
f 144/146/94 145/119/94 148/118/94 147/147/94
f 146/148/95 147/147/95 143/144/95 140/143/95
f 147/147/96 148/118/96 123/120/96 143/144/96
f 149/149/97 155/150/97 158/151/97 157/152/97
f 155/150/98 156/153/98 159/154/98 158/151/98
f 157/152/99 158/151/99 185/155/99 182/149/99
f 158/151/100 159/154/100 160/156/100 185/155/100
f 150/157/101 161/158/101 164/159/101 163/160/101
f 161/158/102 162/161/102 165/162/102 164/159/102
f 163/160/103 164/159/103 159/163/103 156/164/103
f 164/159/104 165/162/104 160/165/104 159/163/104
f 151/166/105 166/167/105 169/168/105 168/169/105
f 166/167/106 167/170/106 170/171/106 169/168/106
f 168/169/107 169/168/107 165/162/107 162/161/107
f 169/168/108 170/171/108 160/165/108 165/162/108
f 152/172/109 171/173/109 174/174/109 173/175/109
f 171/173/110 172/176/110 175/177/110 174/174/110
f 173/175/111 174/174/111 170/171/111 167/170/111
f 174/174/112 175/177/112 160/165/112 170/171/112
f 153/176/113 176/178/113 179/179/113 178/180/113
f 176/178/114 177/181/114 180/182/114 179/179/114
f 178/180/115 179/179/115 175/177/115 172/176/115
f 179/179/116 180/182/116 160/165/116 175/177/116
f 154/183/117 181/184/117 184/185/117 183/186/117
f 181/184/118 182/149/118 185/155/118 184/185/118
f 183/186/119 184/185/119 180/187/119 177/188/119
f 184/185/120 185/155/120 160/156/120 180/187/120
f 186/189/121 192/190/121 195/191/121 194/192/121
f 192/190/122 193/193/122 196/194/122 195/191/122
f 194/192/123 195/191/123 222/195/123 219/189/123
f 195/191/124 196/194/124 197/196/124 222/195/124
f 187/197/125 198/198/125 201/199/125 200/200/125
f 198/198/126 199/201/126 202/202/126 201/199/126
f 200/200/127 201/199/127 196/203/127 193/204/127
f 201/199/128 202/202/128 197/205/128 196/203/128
f 188/206/129 203/207/129 206/208/129 205/209/129
f 203/207/130 204/210/130 207/211/130 206/208/130
f 205/209/131 206/208/131 202/202/131 199/201/131
f 206/208/132 207/211/132 197/205/132 202/202/132
f 189/212/133 208/213/133 211/214/133 210/215/133
f 208/213/134 209/216/134 212/217/134 211/214/134
f 210/215/135 211/214/135 207/211/135 204/210/135
f 211/214/136 212/217/136 197/205/136 207/211/136
f 190/218/137 213/219/137 216/220/137 215/221/137
f 213/219/138 214/222/138 217/223/138 216/220/138
f 215/221/139 216/220/139 212/217/139 209/216/139
f 216/220/140 217/223/140 197/205/140 212/217/140
f 191/224/141 218/225/141 221/226/141 220/227/141
f 218/225/142 219/189/142 222/195/142 221/226/142
f 220/227/143 221/226/143 217/228/143 214/229/143
f 221/226/144 222/195/144 197/196/144 217/228/144
f 223/230/145 229/231/145 232/232/145 231/233/145
f 229/231/146 230/234/146 233/235/146 232/232/146
f 231/233/147 232/232/147 259/236/147 256/237/147
f 232/232/148 233/235/148 234/238/148 259/236/148
f 224/239/149 235/240/149 238/241/149 237/242/149
f 235/240/150 236/243/150 239/244/150 238/241/150
f 237/242/151 238/241/151 233/245/151 230/246/151
f 238/241/152 239/244/152 234/247/152 233/245/152
f 225/248/153 240/249/153 243/250/153 242/251/153
f 240/249/154 241/252/154 244/253/154 243/250/154
f 242/251/155 243/250/155 239/244/155 236/243/155
f 243/250/156 244/253/156 234/247/156 239/244/156
f 226/254/157 245/255/157 248/256/157 247/257/157
f 245/255/158 246/258/158 249/259/158 248/256/158
f 247/257/159 248/256/159 244/260/159 241/261/159
f 248/256/160 249/259/160 234/262/160 244/260/160
f 227/263/161 250/264/161 253/265/161 252/266/161
f 250/264/162 251/267/162 254/268/162 253/265/162
f 252/266/163 253/265/163 249/259/163 246/258/163
f 253/265/164 254/268/164 234/262/164 249/259/164
f 228/269/165 255/270/165 258/271/165 257/272/165
f 255/270/166 256/237/166 259/236/166 258/271/166
f 257/272/167 258/271/167 254/273/167 251/274/167
f 258/271/168 259/236/168 234/238/168 254/273/168
f 260/275/169 266/276/169 269/277/169 268/278/169
f 266/276/170 267/279/170 270/280/170 269/277/170
f 268/278/171 269/277/171 296/281/171 293/275/171
f 269/277/172 270/280/172 271/282/172 296/281/172
f 261/283/173 272/284/173 275/285/173 274/286/173
f 272/284/174 273/287/174 276/288/174 275/285/174
f 274/286/175 275/285/175 270/289/175 267/290/175
f 275/285/176 276/288/176 271/291/176 270/289/176
f 262/292/177 277/293/177 280/294/177 279/295/177
f 277/293/178 278/296/178 281/297/178 280/294/178
f 279/295/179 280/294/179 276/288/179 273/287/179
f 280/294/180 281/297/180 271/291/180 276/288/180
f 263/298/181 282/299/181 285/300/181 284/301/181
f 282/299/182 283/302/182 286/303/182 285/300/182
f 284/301/183 285/300/183 281/304/183 278/305/183
f 285/300/184 286/303/184 271/306/184 281/304/184
f 264/302/185 287/307/185 290/308/185 289/309/185
f 287/307/186 288/310/186 291/311/186 290/308/186
f 289/309/187 290/308/187 286/303/187 283/302/187
f 290/308/188 291/311/188 271/306/188 286/303/188
f 265/312/189 292/313/189 295/314/189 294/315/189
f 292/313/190 293/275/190 296/281/190 295/314/190
f 294/315/191 295/314/191 291/316/191 288/317/191
f 295/314/192 296/281/192 271/282/192 291/316/192
f 191/224/193 260/318/193 268/319/193 218/225/193
f 218/225/194 268/319/194 293/320/194 219/189/194
f 219/321/195 293/275/195 292/313/195 194/322/195
f 194/322/196 292/313/196 265/312/196 186/323/196
f 39/47/197 190/324/197 215/325/197 50/48/197
f 50/48/198 215/325/198 209/326/198 51/51/198
f 51/51/199 209/216/199 208/213/199 57/56/199
f 57/56/200 208/213/200 189/212/200 40/53/200
f 6/34/201 42/65/201 67/68/201 33/35/201
f 33/35/202 67/68/202 61/63/202 34/8/202
f 34/8/203 61/63/203 60/60/203 9/4/203
f 9/4/204 60/60/204 41/59/204 1/1/204
f 263/298/205 225/327/205 242/328/205 282/299/205
f 282/299/206 242/328/206 236/329/206 283/302/206
f 283/330/207 236/243/207 235/240/207 289/331/207
f 289/331/208 235/240/208 224/239/208 264/332/208
f 80/108/209 114/127/209 131/130/209 107/109/209
f 107/109/210 131/130/210 125/125/210 108/82/210
f 108/82/211 125/125/211 124/122/211 83/78/211
f 83/78/212 124/122/212 113/121/212 75/75/212
f 150/157/213 188/206/213 205/209/213 161/158/213
f 161/158/214 205/209/214 199/201/214 162/161/214
f 162/161/215 199/201/215 198/198/215 168/169/215
f 168/169/216 198/198/216 187/197/216 151/166/216
f 78/96/217 227/333/217 252/334/217 97/97/217
f 97/97/218 252/334/218 246/335/218 98/100/218
f 98/100/219 246/258/219 245/255/219 104/105/219
f 104/105/220 245/255/220 226/254/220 79/102/220
f 4/22/221 77/90/221 94/93/221 23/23/221
f 23/23/222 94/93/222 88/88/222 24/26/222
f 24/26/223 88/88/223 87/85/223 30/31/223
f 30/31/224 87/85/224 76/84/224 5/28/224
f 261/283/225 116/139/225 141/142/225 272/284/225
f 272/284/226 141/142/226 135/137/226 273/287/226
f 273/336/227 135/137/227 134/134/227 279/337/227
f 279/337/228 134/134/228 115/133/228 262/338/228
f 228/269/229 153/339/229 178/340/229 255/270/229
f 255/270/230 178/340/230 172/341/230 256/237/230
f 256/342/231 172/176/231 171/173/231 231/343/231
f 231/343/232 171/173/232 152/172/232 223/344/232
f 154/183/233 3/16/233 20/19/233 181/184/233
f 181/184/234 20/19/234 14/14/234 182/149/234
f 182/345/235 14/14/235 13/11/235 157/346/235
f 157/346/236 13/11/236 2/10/236 149/347/236
f 117/145/237 38/38/237 46/41/237 144/146/237
f 144/146/238 46/41/238 71/45/238 145/119/238
f 145/119/239 71/45/239 70/72/239 120/115/239
f 120/115/240 70/72/240 43/71/240 112/112/240
f 189/212/241 210/215/241 204/210/241 203/207/241 188/206/241 150/157/241 163/160/241 156/164/241 155/348/241 149/347/241 2/10/241 15/13/241 8/5/241 7/2/241 1/1/241 41/59/241 62/62/241 56/57/241 55/54/241 40/53/241
f 43/71/242 72/74/242 66/69/242 65/66/242 42/65/242 6/34/242 35/37/242 29/32/242 28/29/242 5/28/242 76/84/242 89/87/242 82/79/242 81/76/242 75/75/242 113/121/242 126/124/242 119/116/242 118/113/242 112/112/242
f 4/22/243 25/25/243 19/20/243 18/17/243 3/16/243 154/183/243 183/186/243 177/188/243 176/349/243 153/339/243 228/269/243 257/272/243 251/274/243 250/350/243 227/333/243 78/96/243 99/99/243 93/94/243 92/91/243 77/90/243
f 191/224/244 220/227/244 214/229/244 213/351/244 190/324/244 39/47/244 52/50/244 45/42/244 44/39/244 38/38/244 117/145/244 146/148/244 140/143/244 139/140/244 116/139/244 261/283/244 274/286/244 267/290/244 266/352/244 260/318/244
f 115/133/245 136/136/245 130/131/245 129/128/245 114/127/245 80/108/245 109/111/245 103/106/245 102/103/245 79/102/245 226/254/245 247/257/245 241/261/245 240/353/245 225/327/245 263/298/245 284/301/245 278/305/245 277/354/245 262/338/245
f 265/312/246 294/315/246 288/317/246 287/355/246 264/332/246 224/239/246 237/242/246 230/246/246 229/356/246 223/344/246 152/172/246 173/175/246 167/170/246 166/167/246 151/166/246 187/197/246 200/200/246 193/204/246 192/357/246 186/323/246
